<svg width="14" height="14" viewBox="0 0 14 14" fill="none" xmlns="http://www.w3.org/2000/svg">
<path d="M6.99998 0.333496C3.31998 0.333496 0.333313 3.32016 0.333313 7.00016C0.333313 10.6802 3.31998 13.6668 6.99998 13.6668C10.68 13.6668 13.6666 10.6802 13.6666 7.00016C13.6666 3.32016 10.68 0.333496 6.99998 0.333496ZM9.33331 7.50016H5.87331L7.01998 8.64683C7.21331 8.84016 7.21331 9.16016 7.01998 9.3535C6.91998 9.4535 6.79331 9.50016 6.66665 9.50016C6.53998 9.50016 6.41331 9.4535 6.31331 9.3535L4.31331 7.3535C4.11998 7.16016 4.11998 6.84016 4.31331 6.64683L6.31331 4.64683C6.50665 4.4535 6.82665 4.4535 7.01998 4.64683C7.21331 4.84016 7.21331 5.16016 7.01998 5.3535L5.87331 6.50016H9.33331C9.60665 6.50016 9.83331 6.72683 9.83331 7.00016C9.83331 7.2735 9.60665 7.50016 9.33331 7.50016Z" fill="white"/>
</svg>
