<svg width="16" height="18" viewBox="0 0 16 18" fill="none" xmlns="http://www.w3.org/2000/svg">
<path d="M7.99999 10.584C3.82499 10.584 0.424988 13.384 0.424988 16.834C0.424988 17.0673 0.608321 17.2507 0.841654 17.2507H15.1583C15.3917 17.2507 15.575 17.0673 15.575 16.834C15.575 13.384 12.175 10.584 7.99999 10.584Z" fill="#0F0F0F"/>
<path d="M7.99999 0.583984C7.01665 0.583984 6.11665 0.925651 5.39999 1.50065C4.44165 2.25898 3.83332 3.43398 3.83332 4.75065C3.83332 5.53398 4.04999 6.26732 4.44165 6.89232C5.15832 8.10065 6.47499 8.91732 7.99999 8.91732C9.04999 8.91732 10.0083 8.53398 10.7417 7.87565C11.0667 7.60065 11.35 7.26732 11.5667 6.89232C11.95 6.26732 12.1667 5.53398 12.1667 4.75065C12.1667 2.45065 10.3 0.583984 7.99999 0.583984ZM10.1583 4.30065L7.93332 6.35065C7.78332 6.49232 7.59165 6.55898 7.39999 6.55898C7.19999 6.55898 6.99999 6.48398 6.84999 6.33398L5.82499 5.30065C5.51666 4.99232 5.51666 4.50065 5.82499 4.19232C6.13332 3.88398 6.62499 3.88398 6.93332 4.19232L7.42499 4.68398L9.09999 3.14232C9.41665 2.85065 9.90832 2.86732 10.2 3.18398C10.4917 3.50898 10.475 4.00898 10.1583 4.30065Z" fill="#0F0F0F"/>
</svg>
